# xmcd
#
# Track frame offsets: 
#        150
#        15995
#        30890
#        52172
#        63815
#        88220
#        103177
#        119305
#        137225
#        151907
#        170180
#        184952
#        200230
#
# Disc length: 3049 seconds
#
# Revision: 5
# Processed by: cddbd v1.5.2PL0 Copyright (c) Steve Scherf et al.
# Submitted via: ExactAudioCopyFreeDBPlugin 1.0
#
DISCID=b60be70d
DTITLE=EMMYLOU HARRIS and LINDA RONSTADT - Western Wall | The Tucson Ses
DTITLE=sions
DYEAR=1999
DGENRE=Country
TTITLE0=Loving The Highway Man
TTITLE1=Raise The Dead
TTITLE2=For A Dancer
TTITLE3=Western Wall
TTITLE4=1917
TTITLE5=He Was Mine
TTITLE6=Sweet Spot
TTITLE7=Sisters Of Mercy
TTITLE8=Falling Down
TTITLE9=Valerie
TTITLE10=This Is To Mother You
TTITLE11=All I Left Behind
TTITLE12=Across The Border
EXTD=YEAR: 1994
EXTT0=
EXTT1=
EXTT2=
EXTT3=
EXTT4=
EXTT5=
EXTT6=
EXTT7=
EXTT8=
EXTT9=
EXTT10=
EXTT11=
EXTT12=
PLAYORDER=
